<?xml version="1.0" encoding="utf-8"?>
<!-- Generator: Adobe Illustrator 15.1.0, SVG Export Plug-In . SVG Version: 6.00 Build 0)  -->
<!DOCTYPE svg PUBLIC "-//W3C//DTD SVG 1.1//EN" "http://www.w3.org/Graphics/SVG/1.1/DTD/svg11.dtd">
<svg version="1.1" id="Layer_1" xmlns="http://www.w3.org/2000/svg" xmlns:xlink="http://www.w3.org/1999/xlink" x="0px" y="0px"
	 width="1000px" height="1000px" viewBox="0 0 1000 1000" enable-background="new 0 0 1000 1000" xml:space="preserve">
<g>
	<defs>
		<ellipse id="SVGID_1_" cx="499.154" cy="498.565" rx="471.765" ry="478.303"/>
	</defs>
	<use xlink:href="#SVGID_1_"  overflow="visible" fill="#BE1622"/>
	<clipPath id="SVGID_2_">
		<use xlink:href="#SVGID_1_"  overflow="visible"/>
	</clipPath>
	<path clip-path="url(#SVGID_2_)" fill="#FFFFFF" stroke="#E71D73" stroke-width="0.5" d="M350.881,323.407
		c0,0,27.13,22.655,28.638,33.983c1.508,11.329,18.087,9.441,23.362,12.587c5.278,3.147,40.696-5.664,45.97,0
		c5.277,5.665,7.536,12.587,6.783,22.341c-0.753,9.755-29.39,21.71-29.39,21.71s-5.275,5.666,4.522,6.924
		c9.798,1.259,10.55,0,18.841,0c8.288,0,0,16.992,0,16.992s-4.522,6.923-10.554,8.179c-6.027,1.261,12.813,19.659,8.291,28.081
		c-4.521,8.421-9.043,25.413-15.823,28.56c-6.785,3.146-15.449,5.034-15.449,7.552c0,2.516,10.172,3.147,15.449,3.147
		c5.274,0,16.578,5.035,17.33,10.698c0.755,5.663-15.825,8.807-18.839,9.438c-3.013,0.63,12.811,16.36,12.811,27.691
		c0,11.329,12.058,39.017,9.043,45.31c-3.015,6.293-18.84,38.388-26.378,46.572c-7.534,8.181-6.027,21.395-5.272,28.947
		c0.753,7.55,9.042,82.442,18.837,88.735c9.798,6.293,33.161,7.554,35.421,15.732c2.263,8.179,1.508,16.991-6.781,16.991
		c-8.291,0-44.871-5.663-54.463-7.552c-9.594-1.888-9.594-15.731-9.594-15.731s-5.275-21.398-12.81-25.174
		c-7.536-3.777-12.813-41.535-18.088-31.466c-5.275,10.069-0.753,24.544,2.261,30.208s13.933,39.599,21.856,36.501
		c7.922-3.099,10.55,12.589,7.535,17.619c-3.016,5.034-26.377,10.698-36.927,6.294c-10.551-4.403-21.101-15.104-21.101-23.284
		c0-8.181-15.07-52.236-21.855-54.122c-6.779-1.886-57.274-6.293-66.316-2.519c-9.042,3.776-18.877,11.958-16.974,16.363
		c1.904,4.405-1.863,19.511-8.646,18.879c-6.784-0.628-39.188-5.665-39.188-10.698s-3.768-8.81-7.536-8.81
		c-3.767,0-9.797-3.776-14.318-1.888c-4.521,1.888-35.418,8.809-45.216,3.775c-9.796-5.036-36.171-18.25-54.258-20.768
		c-18.085-2.517-31.65,6.922-46.722-2.517c-15.072-9.44-12.058-31.468-12.058-36.501c0-5.034,4.521-33.354,17.333-42.166
		c12.811-8.81,86.663-11.33,92.692-2.517c6.029,8.812,9.797,12.585,12.812,6.922c3.014-5.661,24.114-34.613,30.143-40.276
		c6.029-5.664,26.375-54.754,38.435-61.674c12.058-6.923,64.81-50.976,79.127-57.268c14.318-6.293,0.754-11.461-5.273-16.744
		c-6.029-5.282,9.042-32.131,9.042-37.588c0-5.455,12.811-23.704,3.015-33.773c-9.798-10.071-23.364-56.01-23.364-60.417
		c0-4.404,3.77-16.991,13.566-13.215c9.798,3.776,35.418,15.104,42.202,22.027c6.783,6.922,19.593-1.259,18.839-3.146
		C341.085,350.467,346.36,324.666,350.881,323.407z"/>
	<path clip-path="url(#SVGID_2_)" fill="#FFFFFF" stroke="#E71D73" stroke-width="0.5" d="M1537.849,355.73
		c6.404-26.023,40.111-39.253,40.111-39.253v-13.655h-541.033H495.886v13.655c0,0,33.711,13.229,40.108,39.253h27.926
		c2.859,21.059-42.914,34.625-42.836,91.74c0.098,73.565,23.78,80.552,62.826,177.058c37.609,92.961-22.848,151.357-22.848,151.357
		l10.71,14.99v24.987h27.129v-27.129c0,0,39.979-42.128,35.699-129.225c-4.286-87.101-57.83-133.507-35.699-203.473
		c12.212-38.592,83.062-65.126,144.157-81.164c-0.294,1.462-0.548,2.936-0.705,4.438c-4.842,46.504,49.547,72.882,85.319,44.564
		c7.137-5.643,12.456-14.067,12.814-23.164c0.419-10.582-7.106-21.679-18.131-22.764c-8.915-2.373-19.472,1.851-23.393,11.312
		c-1.607,3.867,3.349,5.897,6.157,3.826c5.772-4.259,12.957-11.206,19.911-4.707c2.633,2.462,3.972,6.074,4.336,9.663
		c0.75,7.51-2.679,15.294-8.729,19.798c-17.133,12.749-39.41-4.494-44.204-21.715c-3.087-11.072-0.116-21.894,6.14-30.617
		c11.711-2.498,22.186-4.505,30.684-6.035c-7.122,2.484-13.929,5.948-20.138,10.41c-1.808,1.303-2.029,3.375-1.354,5.003
		c-0.271,2.97,2.724,4.085,5.915,1.989c27.112-17.808,58.072-0.925,81.728,15.443c22.811,15.778,43.275,33.324,70.838,40.081
		c31.434,7.713,65.607-1.881,86.68-24.509c21.069,22.628,55.239,32.223,86.672,24.509c27.562-6.757,48.024-24.303,70.837-40.081
		c23.66-16.368,54.619-33.251,81.728-15.443c3.188,2.096,6.188,0.98,5.918-1.989c0.671-1.628,0.454-3.7-1.352-5.003
		c-6.212-4.462-13.021-7.929-20.143-10.412c8.499,1.53,18.976,3.54,30.685,6.037c6.255,8.723,9.227,19.545,6.141,30.617
		c-4.799,17.221-27.075,34.464-44.204,21.715c-6.052-4.504-9.489-12.288-8.732-19.798c0.367-3.589,1.709-7.201,4.339-9.663
		c6.953-6.5,14.137,0.447,19.915,4.707c2.809,2.071,7.757,0.041,6.149-3.826c-3.922-9.461-14.472-13.685-23.389-11.312
		c-11.029,1.085-18.554,12.183-18.128,22.764c0.353,9.097,5.671,17.521,12.813,23.164c35.769,28.318,90.159,1.94,85.315-44.564
		c-0.155-1.503-0.409-2.976-0.703-4.438c61.097,16.038,131.951,42.572,144.159,81.164c22.134,69.966-31.413,116.373-35.697,203.473
		c-4.283,87.097,35.697,129.225,35.697,129.225v27.129h27.131v-24.987l10.707-14.99c0,0-60.453-58.396-22.848-151.357
		c39.047-96.506,62.728-103.492,62.83-177.058c0.077-57.115-45.691-70.681-42.836-91.74H1537.849z M853.913,356.135
		c0.077,0.034,0.161,0.081,0.242,0.123c-1.103-0.204-2.208-0.372-3.32-0.528h2.247C853.357,355.867,853.64,355.994,853.913,356.135
		 M908.655,379.509c25.016,8.331,55.193,7.135,74.895-10.638c-5.07,19.292-29.203,27.34-48.704,23.854
		c-14.56-2.596-27.459-10.057-39.758-18.488C899.604,376.208,904.117,378,908.655,379.509 M872.816,355.73h111.986
		c-0.354,0.563-0.577,1.002-0.577,1.015c-15.451,20.577-43.271,22.883-66.761,17.187C901.813,370.145,887.27,363.017,872.816,355.73
		 M940.344,401.395c14.099,1.803,28.771-2.816,39.053-12.68c5.002-4.801,8.864-10.758,11.08-17.335
		c0.917-2.729,3.503-11.237,2.076-15.649h24.68c-0.109,1.563-0.181,3.131-0.17,4.706c-0.877,7.308-3.145,14.464-6.417,20.774
		c-8.399,16.237-25.925,25.469-43.498,27.749c-3.313,0.428-6.509,0.569-9.608,0.45c-10.088-2.211-20.045-5.948-29.316-10.553
		C932.106,399.972,936.128,400.862,940.344,401.395 M1081.291,355.73c-1.424,4.413,1.162,12.921,2.076,15.649
		c2.215,6.577,6.082,12.534,11.082,17.335c10.285,9.864,24.953,14.483,39.049,12.68c4.217-0.532,8.231-1.423,12.126-2.539
		c-9.272,4.605-19.229,8.341-29.315,10.553c-3.101,0.119-6.296-0.021-9.606-0.45c-17.577-2.279-35.103-11.511-43.502-27.749
		c-3.273-6.31-5.532-13.466-6.42-20.774c0.016-1.575-0.053-3.143-0.169-4.706H1081.291z M1138.998,392.725
		c-19.5,3.486-43.628-4.562-48.698-23.854c19.701,17.773,49.871,18.969,74.889,10.638c4.538-1.508,9.057-3.301,13.573-5.272
		C1166.462,382.668,1153.565,390.128,1138.998,392.725 M1156.386,373.932c-23.495,5.696-51.312,3.39-66.764-17.187
		c0-0.013-0.226-0.452-0.578-1.015h111.989C1186.575,363.017,1172.03,370.145,1156.386,373.932 M1219.935,356.135
		c0.271-0.141,0.554-0.269,0.826-0.405h2.253c-1.109,0.156-2.216,0.324-3.32,0.528
		C1219.772,356.216,1219.857,356.169,1219.935,356.135 M994.002,424.497c-31.454,8.549-62.067-4.464-87.395-22.322
		c-21.233-14.966-46.622-35.062-73.016-39.049c14.014-1.121,28.321,1.874,41.334,9.117c12.645,7.04,22.404,17.329,34.316,25.394
		c12.21,8.272,25.604,14.954,39.925,18.654c21.098,5.456,44.463,4.061,63.414-6.697c5.883-3.347,11.259-7.656,15.845-12.678
		c1.062,1.664,2.168,3.279,3.35,4.838C1021.735,412.69,1008.211,420.63,994.002,424.497 M1036.927,395.402
		c-1.162-1.609-2.254-3.271-3.257-4.979c1.176-1.678,2.246-3.419,3.257-5.192c1.006,1.773,2.074,3.514,3.251,5.192
		C1039.172,392.131,1038.087,393.792,1036.927,395.402 M1167.237,402.175c-25.326,17.857-55.94,30.871-87.395,22.322
		c-14.206-3.867-27.73-11.806-37.767-22.744c1.17-1.56,2.283-3.174,3.346-4.838c4.59,5.022,9.962,9.332,15.843,12.678
		c18.952,10.758,42.316,12.153,63.415,6.697c14.318-3.7,27.712-10.382,39.926-18.654c11.91-8.065,21.668-18.354,34.314-25.394
		c13.016-7.243,27.318-10.238,41.33-9.117C1213.858,367.112,1188.473,387.209,1167.237,402.175"/>
</g>
</svg>
