<?xml version="1.0" encoding="utf-8"?>
<!-- Generator: Adobe Illustrator 15.1.0, SVG Export Plug-In . SVG Version: 6.00 Build 0)  -->
<!DOCTYPE svg PUBLIC "-//W3C//DTD SVG 1.1//EN" "http://www.w3.org/Graphics/SVG/1.1/DTD/svg11.dtd">
<svg version="1.1" id="Layer_1" xmlns="http://www.w3.org/2000/svg" xmlns:xlink="http://www.w3.org/1999/xlink" x="0px" y="0px"
	 width="200px" height="200px" viewBox="0 0 200 200" enable-background="new 0 0 200 200" xml:space="preserve">
<g>
	<path fill="#BE1622" d="M191.556,110.508l-65.274-63.237c-4.896-4.74-8.827-0.017-8.827-0.017l-65.521,63.199
		c0,0-5.431,4.815-0.03,10.63s15.773-7.078,16.619-8.101l-0.219,53.775c0,0-0.854,8.882,8.678,8.882h16.205v-38.741
		c0-15.747,12.763-28.511,28.511-28.511c15.746,0,28.512,12.764,28.512,28.511v38.741h16.043c9.534,0,8.712-8.882,8.712-8.882
		l-0.186-53.509c0.847,1.02,11.277,13.783,16.68,7.967C196.858,115.397,191.556,110.508,191.556,110.508z"/>
	<path fill="#FFFFFF" d="M136.953,72.859c-7.098-6.503-15.227,2.365-15.227,2.365h-0.06c0,0-8.13-8.869-15.226-2.365
		c-7.096,6.505-0.887,21.508,15.226,28.014l0.06,0.075C137.838,94.443,144.049,79.364,136.953,72.859z M122.643,81.264
		c0.511-1.596,1.873-2.586,3.047-2.211c1.171,0.374,1.707,1.971,1.198,3.568c-0.509,1.595-1.873,2.587-3.045,2.211
		C122.669,84.458,122.132,82.86,122.643,81.264z M118.476,78.996c1.111-0.337,2.46,0.72,3.012,2.36
		c0.551,1.641,0.095,3.246-1.017,3.583c-1.112,0.338-2.459-0.719-3.012-2.36C116.909,80.938,117.363,79.333,118.476,78.996z
		 M116.655,88.726c-1.06,0.32-2.345-0.686-2.872-2.245c-0.525-1.561-0.096-3.084,0.963-3.403c1.061-0.32,2.346,0.685,2.872,2.246
		C118.146,86.883,117.714,88.408,116.655,88.726z M124.205,92.968c0,0-1.078-1.084-1.977-1.084L122,91.908
		c-0.899,0-1.977,1.091-1.977,1.091s-2.552,1.32-2.537-1.747c-0.022-5.224,4.514-5.97,4.514-5.97h0.229c0,0,4.534,0.745,4.515,5.968
		C126.757,94.317,124.205,92.968,124.205,92.968z M130.553,86.568c-0.486,1.527-1.742,2.49-2.804,2.151
		c-1.06-0.338-1.523-1.852-1.036-3.379c0.488-1.528,1.742-2.491,2.804-2.152C130.577,83.526,131.041,85.039,130.553,86.568z"/>
</g>
<path fill="#BE1622" d="M47.148,119.687c0,0,3.256,2.718,3.436,4.079c0.183,1.357,2.171,1.131,2.803,1.509
	c0.634,0.377,4.884-0.681,5.517,0c0.633,0.68,0.904,1.51,0.813,2.681s-3.526,2.604-3.526,2.604s-0.633,0.68,0.543,0.83
	c1.175,0.152,1.265,0,2.261,0c0.993,0,0,2.039,0,2.039s-0.544,0.831-1.267,0.982c-0.724,0.15,1.538,2.359,0.994,3.369
	c-0.542,1.01-1.085,3.049-1.897,3.427c-0.814,0.377-1.854,0.603-1.854,0.906c0,0.301,1.22,0.378,1.854,0.378
	c0.633,0,1.987,0.604,2.079,1.282c0.091,0.68-1.899,1.058-2.261,1.133s1.537,1.964,1.537,3.323c0,1.358,1.446,4.682,1.086,5.437
	c-0.362,0.754-2.262,4.605-3.166,5.587c-0.904,0.982-0.723,2.566-0.633,3.473c0.091,0.906,1.086,9.893,2.261,10.647
	c1.176,0.754,3.979,0.907,4.251,1.888c0.271,0.981,0.179,2.038-0.815,2.038c-0.993,0-5.383-0.679-6.534-0.905
	c-1.15-0.228-1.15-1.888-1.15-1.888s-0.634-2.567-1.537-3.021c-0.905-0.453-1.537-4.982-2.171-3.775
	c-0.634,1.208-0.09,2.945,0.271,3.624c0.362,0.68,1.671,4.752,2.623,4.38c0.951-0.372,1.265,1.511,0.903,2.114
	c-0.361,0.604-3.164,1.283-4.432,0.755c-1.265-0.528-2.53-1.812-2.53-2.794s-1.809-6.268-2.623-6.493
	c-0.813-0.226-6.872-0.755-7.956-0.303c-1.085,0.453-2.265,1.435-2.037,1.963c0.229,0.529-0.224,2.341-1.038,2.267
	c-0.813-0.076-4.701-0.681-4.701-1.284c0-0.604-0.452-1.057-0.904-1.057s-1.175-0.454-1.717-0.227
	c-0.543,0.227-4.25,1.056-5.426,0.452c-1.175-0.604-4.34-2.189-6.51-2.492c-2.17-0.301-3.797,0.831-5.606-0.301
	c-1.808-1.133-1.446-3.776-1.446-4.381c0-0.604,0.542-4.001,2.08-5.058c1.537-1.058,10.398-1.359,11.122-0.303
	c0.723,1.058,1.175,1.511,1.537,0.831c0.362-0.681,2.894-4.153,3.617-4.833c0.723-0.679,3.165-6.57,4.611-7.399
	c1.447-0.83,7.776-6.116,9.494-6.871s0.09-1.375-0.633-2.01c-0.723-0.634,1.085-3.854,1.085-4.51c0-0.653,1.537-2.844,0.361-4.051
	c-1.176-1.21-2.804-6.722-2.804-7.25s0.453-2.039,1.628-1.586c1.176,0.454,4.25,1.813,5.063,2.643
	c0.813,0.831,2.351-0.15,2.26-0.376C45.974,122.935,46.606,119.837,47.148,119.687z"/>
</svg>
